<svg xmlns="http://www.w3.org/2000/svg" xmlns:xlink="http://www.w3.org/1999/xlink" width="500" zoomAndPan="magnify" viewBox="0 0 375 374.999991" height="500" preserveAspectRatio="xMidYMid meet" version="1.0"><defs><filter x="0%" y="0%" width="100%" height="100%" id="1196c64ae2"><feColorMatrix values="0 0 0 0 1 0 0 0 0 1 0 0 0 0 1 0 0 0 1 0" color-interpolation-filters="sRGB"/></filter><g/><mask id="9cf3349dcd"><g filter="url(#1196c64ae2)"><rect x="-37.5" width="450" fill="#000000" y="-37.499999" height="449.999989" fill-opacity="0.56"/></g></mask><clipPath id="08cc833dd1"><path d="M 0.238281 0.160156 L 98.640625 0.160156 L 98.640625 16.960938 L 0.238281 16.960938 Z M 0.238281 0.160156 " clip-rule="nonzero"/></clipPath><clipPath id="f3303e0858"><rect x="0" width="99" y="0" height="17"/></clipPath></defs><g fill="#b28593" fill-opacity="1"><g transform="translate(162.222401, 227.669707)"><g><path d="M 51.6875 0 L -4.546875 -134.078125 L 29.90625 -134.078125 L 63.703125 -45.984375 L 97.515625 -134.078125 L 131.96875 -134.078125 L 75.734375 0 Z M 51.6875 0 "/></g></g></g><path stroke-linecap="butt" transform="matrix(1.304558, 0, 0, 1.304558, 49.894338, 65.755272)" fill="none" stroke-linejoin="miter" d="M 44.821964 18.201359 L 77.945013 18.201359 C 87.954989 18.201359 95.940812 20.339296 101.902482 24.618164 C 107.867146 28.873077 110.846484 35.79592 110.846484 45.383699 C 110.846484 56.088354 106.402929 63.726837 97.50983 68.299148 C 112.702955 70.973066 120.299518 79.950005 120.299518 95.226971 C 120.299518 104.20391 117.191425 111.408218 110.975239 116.845884 C 104.759053 122.280555 96.213294 124.999388 85.340957 124.999388 L 44.821964 124.999388 Z M 69.15971 60.016888 L 71.088045 60.016888 C 76.522716 60.016888 80.580005 59.067692 83.256918 57.172294 C 85.930836 55.276896 87.269292 52.168803 87.269292 47.848015 C 87.269292 40.598792 81.876541 36.975678 71.088045 36.975678 L 69.15971 36.975678 Z M 69.15971 106.225069 L 76.777233 106.225069 C 88.703566 106.225069 94.665236 102.254615 94.665236 94.310712 C 94.665236 89.567726 93.168082 86.166191 90.176767 84.100118 C 87.206412 82.016078 82.738902 80.971065 76.777233 80.971065 L 69.15971 80.971065 Z M 69.15971 106.225069 " stroke="#f1f1f1" stroke-width="11.327925" stroke-opacity="1" stroke-miterlimit="4"/><g fill="#000000" fill-opacity="1"><g transform="translate(98.224133, 228.825017)"><g><path d="M 10.140625 -139.328125 L 53.375 -139.328125 C 66.425781 -139.328125 76.835938 -136.539062 84.609375 -130.96875 C 92.378906 -125.394531 96.265625 -116.363281 96.265625 -103.875 C 96.265625 -89.90625 90.46875 -79.9375 78.875 -73.96875 C 98.6875 -70.476562 108.59375 -58.769531 108.59375 -38.84375 C 108.59375 -27.132812 104.539062 -17.734375 96.4375 -10.640625 C 88.332031 -3.546875 77.1875 0 63 0 L 10.140625 0 Z M 41.890625 -84.78125 L 44.421875 -84.78125 C 51.515625 -84.78125 56.804688 -86.019531 60.296875 -88.5 C 63.785156 -90.976562 65.53125 -95.03125 65.53125 -100.65625 C 65.53125 -110.113281 58.492188 -114.84375 44.421875 -114.84375 L 41.890625 -114.84375 Z M 41.890625 -24.484375 L 51.84375 -24.484375 C 67.382812 -24.484375 75.15625 -29.664062 75.15625 -40.03125 C 75.15625 -46.21875 73.210938 -50.660156 69.328125 -53.359375 C 65.441406 -56.066406 59.613281 -57.421875 51.84375 -57.421875 L 41.890625 -57.421875 Z M 41.890625 -24.484375 "/></g></g></g><g fill="#000000" fill-opacity="1"><g transform="translate(52.065891, 270.822726)"><g><path d="M 15.40625 -13.5625 C 16.894531 -12.976562 18.070312 -12.148438 18.9375 -11.078125 C 19.8125 -10.003906 20.25 -8.757812 20.25 -7.34375 C 20.25 -5.675781 19.84375 -4.296875 19.03125 -3.203125 C 18.226562 -2.109375 17.171875 -1.300781 15.859375 -0.78125 C 14.546875 -0.257812 13.101562 0 11.53125 0 L 3.765625 0 L 3.765625 -26.140625 L 10.515625 -26.140625 C 13.191406 -26.140625 15.265625 -25.585938 16.734375 -24.484375 C 18.210938 -23.390625 18.953125 -21.75 18.953125 -19.5625 C 18.953125 -18.1875 18.644531 -16.984375 18.03125 -15.953125 C 17.414062 -14.929688 16.539062 -14.132812 15.40625 -13.5625 Z M 7.265625 -14.71875 L 11.25 -14.71875 C 12.59375 -14.71875 13.609375 -15.101562 14.296875 -15.875 C 14.984375 -16.644531 15.328125 -17.632812 15.328125 -18.84375 C 15.328125 -20.164062 14.914062 -21.148438 14.09375 -21.796875 C 13.28125 -22.453125 12.140625 -22.78125 10.671875 -22.78125 L 7.265625 -22.78125 Z M 11.390625 -3.25 C 12.910156 -3.25 14.160156 -3.59375 15.140625 -4.28125 C 16.128906 -4.96875 16.625 -5.972656 16.625 -7.296875 C 16.625 -8.671875 16.085938 -9.679688 15.015625 -10.328125 C 13.941406 -10.984375 12.648438 -11.3125 11.140625 -11.3125 L 7.265625 -11.3125 L 7.265625 -3.25 Z M 11.390625 -3.25 "/></g></g></g><g fill="#000000" fill-opacity="1"><g transform="translate(74.436938, 270.822726)"><g><path d="M 18.15625 0 L 12 -9.65625 C 11.8125 -9.632812 11.523438 -9.625 11.140625 -9.625 L 7.265625 -9.625 L 7.265625 0 L 3.765625 0 L 3.765625 -26.140625 L 10.734375 -26.140625 C 12.515625 -26.140625 14.101562 -25.828125 15.5 -25.203125 C 16.90625 -24.578125 18.003906 -23.65625 18.796875 -22.4375 C 19.597656 -21.21875 20 -19.753906 20 -18.046875 C 20 -16.429688 19.640625 -14.945312 18.921875 -13.59375 C 18.210938 -12.238281 17.125 -11.210938 15.65625 -10.515625 L 22.234375 0 Z M 11.0625 -13.015625 C 12.945312 -13.015625 14.300781 -13.507812 15.125 -14.5 C 15.957031 -15.488281 16.375 -16.617188 16.375 -17.890625 C 16.375 -18.660156 16.195312 -19.421875 15.84375 -20.171875 C 15.5 -20.921875 14.945312 -21.539062 14.1875 -22.03125 C 13.425781 -22.53125 12.46875 -22.78125 11.3125 -22.78125 L 7.265625 -22.78125 L 7.265625 -13.015625 Z M 11.0625 -13.015625 "/></g></g></g><g fill="#000000" fill-opacity="1"><g transform="translate(98.289742, 270.822726)"><g><path d="M 17.46875 -6.875 L 7.40625 -6.875 L 4.625 0 L 1.15625 0 L 12.578125 -27.21875 L 12.796875 -27.21875 L 24.21875 0 L 20.171875 0 Z M 16.265625 -9.90625 L 12.546875 -19.453125 L 8.671875 -9.90625 Z M 16.265625 -9.90625 "/></g></g></g><g fill="#000000" fill-opacity="1"><g transform="translate(123.624316, 270.822726)"><g><path d="M 26.53125 -26.140625 L 26.53125 0.875 L 26.4375 0.875 L 7.234375 -18.625 L 7.296875 0 L 3.765625 0 L 3.765625 -26.9375 L 3.9375 -26.9375 L 23.109375 -7.234375 L 23.03125 -26.140625 Z M 26.53125 -26.140625 "/></g></g></g><g fill="#000000" fill-opacity="1"><g transform="translate(153.910153, 270.822726)"><g><path d="M 3.765625 -26.140625 L 10.921875 -26.140625 C 14.171875 -26.140625 16.863281 -25.492188 19 -24.203125 C 21.132812 -22.910156 22.6875 -21.242188 23.65625 -19.203125 C 24.632812 -17.171875 25.125 -15.023438 25.125 -12.765625 C 25.125 -10.234375 24.53125 -7.992188 23.34375 -6.046875 C 22.164062 -4.109375 20.585938 -2.613281 18.609375 -1.5625 C 16.640625 -0.519531 14.5 0 12.1875 0 L 3.765625 0 Z M 11.5 -3.40625 C 13.425781 -3.40625 15.148438 -3.78125 16.671875 -4.53125 C 18.191406 -5.289062 19.378906 -6.394531 20.234375 -7.84375 C 21.085938 -9.289062 21.515625 -11.015625 21.515625 -13.015625 C 21.515625 -15.066406 21.066406 -16.828125 20.171875 -18.296875 C 19.285156 -19.765625 18.097656 -20.878906 16.609375 -21.640625 C 15.128906 -22.398438 13.535156 -22.78125 11.828125 -22.78125 L 7.265625 -22.78125 L 7.265625 -3.40625 Z M 11.5 -3.40625 "/></g></g></g><g fill="#9aa7b2" fill-opacity="1"><g transform="translate(181.171351, 270.822726)"><g><path d="M 24.546875 -26.140625 L 13.015625 1.234375 L 1.484375 -26.140625 L 5.640625 -26.140625 L 13.15625 -7.296875 L 20.421875 -26.140625 Z M 24.546875 -26.140625 "/></g></g></g><g fill="#9aa7b2" fill-opacity="1"><g transform="translate(207.156453, 270.822726)"><g><path d="M 7.265625 -26.140625 L 7.265625 0 L 3.765625 0 L 3.765625 -26.140625 Z M 7.265625 -26.140625 "/></g></g></g><g fill="#9aa7b2" fill-opacity="1"><g transform="translate(218.179345, 270.822726)"><g><path d="M 17.28125 -21.484375 C 16.34375 -21.984375 15.34375 -22.390625 14.28125 -22.703125 C 13.21875 -23.015625 12.21875 -23.171875 11.28125 -23.171875 C 9.851562 -23.171875 8.722656 -22.851562 7.890625 -22.21875 C 7.066406 -21.582031 6.65625 -20.707031 6.65625 -19.59375 C 6.65625 -18.507812 7.140625 -17.625 8.109375 -16.9375 C 9.085938 -16.25 10.484375 -15.566406 12.296875 -14.890625 C 13.640625 -14.410156 14.773438 -13.882812 15.703125 -13.3125 C 16.640625 -12.75 17.414062 -11.96875 18.03125 -10.96875 C 18.644531 -9.96875 18.953125 -8.695312 18.953125 -7.15625 C 18.953125 -5.757812 18.597656 -4.492188 17.890625 -3.359375 C 17.191406 -2.222656 16.195312 -1.328125 14.90625 -0.671875 C 13.625 -0.0234375 12.113281 0.296875 10.375 0.296875 C 8.757812 0.296875 7.203125 0.0351562 5.703125 -0.484375 C 4.210938 -1.003906 2.898438 -1.660156 1.765625 -2.453125 L 3.328125 -5.25 C 4.222656 -4.570312 5.296875 -3.992188 6.546875 -3.515625 C 7.796875 -3.046875 8.960938 -2.8125 10.046875 -2.8125 C 11.453125 -2.8125 12.675781 -3.171875 13.71875 -3.890625 C 14.769531 -4.617188 15.296875 -5.695312 15.296875 -7.125 C 15.296875 -8.332031 14.851562 -9.289062 13.96875 -10 C 13.09375 -10.707031 11.859375 -11.375 10.265625 -12 C 8.796875 -12.550781 7.570312 -13.09375 6.59375 -13.625 C 5.625 -14.15625 4.785156 -14.882812 4.078125 -15.8125 C 3.378906 -16.738281 3.03125 -17.90625 3.03125 -19.3125 C 3.03125 -21.351562 3.75 -23.003906 5.1875 -24.265625 C 6.625 -25.535156 8.488281 -26.207031 10.78125 -26.28125 C 13.59375 -26.28125 16.207031 -25.582031 18.625 -24.1875 Z M 17.28125 -21.484375 "/></g></g></g><g fill="#9aa7b2" fill-opacity="1"><g transform="translate(239.213183, 270.822726)"><g><path d="M 7.265625 -26.140625 L 7.265625 0 L 3.765625 0 L 3.765625 -26.140625 Z M 7.265625 -26.140625 "/></g></g></g><g fill="#9aa7b2" fill-opacity="1"><g transform="translate(250.236074, 270.822726)"><g><path d="M 2.140625 -13.046875 C 2.140625 -15.429688 2.738281 -17.648438 3.9375 -19.703125 C 5.144531 -21.753906 6.765625 -23.390625 8.796875 -24.609375 C 10.835938 -25.828125 13.0625 -26.4375 15.46875 -26.4375 C 17.851562 -26.4375 20.070312 -25.828125 22.125 -24.609375 C 24.175781 -23.390625 25.8125 -21.753906 27.03125 -19.703125 C 28.25 -17.648438 28.859375 -15.429688 28.859375 -13.046875 C 28.859375 -10.640625 28.253906 -8.410156 27.046875 -6.359375 C 25.835938 -4.316406 24.203125 -2.695312 22.140625 -1.5 C 20.078125 -0.300781 17.851562 0.296875 15.46875 0.296875 C 13.0625 0.296875 10.832031 -0.289062 8.78125 -1.46875 C 6.738281 -2.65625 5.117188 -4.265625 3.921875 -6.296875 C 2.734375 -8.335938 2.140625 -10.585938 2.140625 -13.046875 Z M 5.75 -13.015625 C 5.75 -11.234375 6.179688 -9.582031 7.046875 -8.0625 C 7.921875 -6.539062 9.109375 -5.332031 10.609375 -4.4375 C 12.117188 -3.550781 13.765625 -3.109375 15.546875 -3.109375 C 17.328125 -3.109375 18.957031 -3.546875 20.4375 -4.421875 C 21.925781 -5.304688 23.097656 -6.515625 23.953125 -8.046875 C 24.804688 -9.578125 25.234375 -11.242188 25.234375 -13.046875 C 25.234375 -14.859375 24.800781 -16.535156 23.9375 -18.078125 C 23.070312 -19.617188 21.890625 -20.832031 20.390625 -21.71875 C 18.898438 -22.613281 17.257812 -23.0625 15.46875 -23.0625 C 13.6875 -23.0625 12.046875 -22.609375 10.546875 -21.703125 C 9.054688 -20.804688 7.882812 -19.585938 7.03125 -18.046875 C 6.175781 -16.503906 5.75 -14.828125 5.75 -13.015625 Z M 5.75 -13.015625 "/></g></g></g><g fill="#9aa7b2" fill-opacity="1"><g transform="translate(281.20858, 270.822726)"><g><path d="M 26.53125 -26.140625 L 26.53125 0.875 L 26.4375 0.875 L 7.234375 -18.625 L 7.296875 0 L 3.765625 0 L 3.765625 -26.9375 L 3.9375 -26.9375 L 23.109375 -7.234375 L 23.03125 -26.140625 Z M 26.53125 -26.140625 "/></g></g></g><g fill="#000000" fill-opacity="1"><g transform="translate(311.495565, 270.822726)"><g/></g></g><path stroke-linecap="butt" transform="matrix(0.75, 0, 0, 0.75, 49.894338, 278.217726)" fill="none" stroke-linejoin="miter" d="M 116.463807 5.798241 C 118.76589 5.798241 120.567974 6.376366 121.870057 7.532616 C 123.172141 8.67845 123.823182 10.293033 123.823182 12.36595 C 123.823182 13.558658 123.583599 14.673242 123.099224 15.7097 C 122.620057 16.746158 121.849224 17.5847 120.786724 18.230534 C 119.724224 18.871159 118.380474 19.194075 116.755474 19.194075 L 113.60964 19.194075 L 113.60964 27.001367 L 110.771098 27.001367 L 110.771098 5.798241 Z M 116.755474 16.438867 C 117.771099 16.438867 118.599224 16.225325 119.23464 15.793033 C 119.870057 15.36595 120.323182 14.839908 120.594016 14.225325 C 120.864849 13.610742 121.000266 13.006575 121.000266 12.423242 C 121.000266 11.402408 120.672141 10.501366 120.005474 9.714908 C 119.344015 8.923241 118.307557 8.527408 116.896099 8.527408 L 113.60964 8.527408 L 113.60964 16.438867 Z M 139.890892 27.001367 L 134.906516 19.168034 C 134.750266 19.183659 134.515891 19.194075 134.203391 19.194075 L 131.062766 19.194075 L 131.062766 27.001367 L 128.219016 27.001367 L 128.219016 5.798241 L 133.885683 5.798241 C 135.328392 5.798241 136.620058 6.053449 137.750267 6.563866 C 138.885683 7.069074 139.776308 7.819075 140.422142 8.80345 C 141.067975 9.787825 141.385684 10.975325 141.385684 12.36595 C 141.385684 13.67845 141.099225 14.881575 140.5211 15.970117 C 139.942975 17.063867 139.062767 17.8972 137.870058 18.464909 L 143.2086 27.001367 Z M 134.140891 16.438867 C 135.666933 16.438867 136.7711 16.037825 137.442975 15.24095 C 138.11485 14.438867 138.453392 13.516992 138.453392 12.480533 C 138.453392 11.850325 138.312767 11.235741 138.031517 10.631575 C 137.750267 10.0222 137.297142 9.5222 136.682558 9.126366 C 136.067975 8.725325 135.291933 8.527408 134.349225 8.527408 L 131.062766 8.527408 L 131.062766 16.438867 Z M 146.260684 16.407617 C 146.260684 14.475325 146.745059 12.67845 147.719017 11.016991 C 148.698184 9.355533 150.010684 8.032616 151.666934 7.043033 C 153.317976 6.053449 155.120059 5.558658 157.078393 5.558658 C 159.015893 5.558658 160.817977 6.053449 162.479435 7.043033 C 164.140893 8.032616 165.46381 9.355533 166.453394 11.016991 C 167.437769 12.67845 167.93256 14.475325 167.93256 16.407617 C 167.93256 18.36595 167.442977 20.17845 166.46381 21.8347 C 165.484644 23.496159 164.161727 24.813867 162.489852 25.782617 C 160.823185 26.751367 159.015893 27.235742 157.078393 27.235742 C 155.120059 27.235742 153.312768 26.756576 151.651309 25.798242 C 149.989851 24.839909 148.672142 23.532617 147.703392 21.881575 C 146.739851 20.230534 146.260684 18.402409 146.260684 16.407617 Z M 149.187767 16.438867 C 149.187767 17.886784 149.536726 19.230534 150.239851 20.464909 C 150.948184 21.694075 151.911726 22.673242 153.130476 23.397201 C 154.354434 24.121159 155.687768 24.480534 157.135685 24.480534 C 158.583601 24.480534 159.906518 24.126367 161.109643 23.412826 C 162.312768 22.694076 163.260685 21.720117 163.953393 20.475325 C 164.65131 19.235742 165.000268 17.881575 165.000268 16.407617 C 165.000268 14.944075 164.646102 13.5847 163.937768 12.3347 C 163.234643 11.0847 162.281518 10.100325 161.067977 9.376366 C 159.854435 8.652408 158.52631 8.287825 157.078393 8.287825 C 155.630476 8.287825 154.302351 8.657616 153.088809 9.391991 C 151.875268 10.121158 150.922143 11.110741 150.224226 12.36595 C 149.531517 13.61595 149.187767 14.970117 149.187767 16.438867 Z M 185.291936 5.798241 L 185.291936 8.527408 L 175.552352 8.527408 L 175.552352 15.2722 L 184.088811 15.2722 L 184.088811 18.001367 L 175.552352 18.001367 L 175.552352 27.001367 L 172.708602 27.001367 L 172.708602 5.798241 Z M 192.828395 5.798241 L 192.828395 27.001367 L 189.984645 27.001367 L 189.984645 5.798241 Z M 201.771104 5.798241 L 201.771104 24.240951 L 212.56798 24.240951 L 212.56798 27.001367 L 198.927354 27.001367 L 198.927354 5.798241 Z M 230.953398 5.798241 L 230.953398 8.527408 L 220.015897 8.527408 L 220.015897 14.975325 L 229.781523 14.975325 L 229.781523 17.704492 L 220.015897 17.704492 L 220.015897 24.240951 L 231.364856 24.240951 L 231.364856 27.001367 L 217.172147 27.001367 L 217.172147 5.798241 Z M 247.995066 27.001367 L 243.01069 19.168034 C 242.85444 19.183659 242.620065 19.194075 242.307565 19.194075 L 239.16694 19.194075 L 239.16694 27.001367 L 236.32319 27.001367 L 236.32319 5.798241 L 241.984649 5.798241 C 243.432565 5.798241 244.724232 6.053449 245.85444 6.563866 C 246.989857 7.069074 247.880482 7.819075 248.526316 8.80345 C 249.166941 9.787825 249.489857 10.975325 249.489857 12.36595 C 249.489857 13.67845 249.203399 14.881575 248.625274 15.970117 C 248.047149 17.063867 247.161732 17.8972 245.974232 18.464909 L 251.307566 27.001367 Z M 242.245065 16.438867 C 243.771107 16.438867 244.870065 16.037825 245.547149 15.24095 C 246.219024 14.438867 246.557565 13.516992 246.557565 12.480533 C 246.557565 11.850325 246.41694 11.235741 246.130482 10.631575 C 245.849232 10.0222 245.401315 9.5222 244.786732 9.126366 C 244.172149 8.725325 243.390899 8.527408 242.453399 8.527408 L 239.16694 8.527408 L 239.16694 16.438867 Z M 242.245065 16.438867 " stroke="#b28593" stroke-width="1.099999" stroke-opacity="1" stroke-miterlimit="4"/><g mask="url(#9cf3349dcd)"><g transform="matrix(1, 0, 0, 1, 138, 326)"><g clip-path="url(#f3303e0858)"><g clip-path="url(#08cc833dd1)"><path fill="#f1e0e5" d="M 4.886719 0.699219 L 94.105469 0.699219 C 95.140625 0.699219 96.136719 1.113281 96.871094 1.847656 C 97.605469 2.578125 98.015625 3.574219 98.015625 4.613281 L 98.015625 12.4375 C 98.015625 13.476562 97.605469 14.46875 96.871094 15.203125 C 96.136719 15.9375 95.140625 16.351562 94.105469 16.351562 L 4.886719 16.351562 C 2.726562 16.351562 0.972656 14.597656 0.972656 12.4375 L 0.972656 4.613281 C 0.972656 2.453125 2.726562 0.699219 4.886719 0.699219 Z M 4.886719 0.699219 " fill-opacity="1" fill-rule="nonzero"/></g><g fill="#8d2c4a" fill-opacity="1"><g transform="translate(5.374199, 11.899968)"><g><path d="M 4.4375 -7.09375 C 3.59375 -7.09375 2.925781 -6.8125 2.4375 -6.25 C 1.957031 -5.6875 1.71875 -4.910156 1.71875 -3.921875 C 1.71875 -2.953125 1.941406 -2.179688 2.390625 -1.609375 C 2.835938 -1.046875 3.515625 -0.765625 4.421875 -0.765625 C 4.753906 -0.765625 5.078125 -0.789062 5.390625 -0.84375 C 5.703125 -0.90625 6.003906 -0.976562 6.296875 -1.0625 L 6.296875 -0.203125 C 6.003906 -0.0976562 5.703125 -0.0195312 5.390625 0.03125 C 5.078125 0.0820312 4.707031 0.109375 4.28125 0.109375 C 3.476562 0.109375 2.804688 -0.0507812 2.265625 -0.375 C 1.734375 -0.707031 1.332031 -1.175781 1.0625 -1.78125 C 0.800781 -2.394531 0.671875 -3.113281 0.671875 -3.9375 C 0.671875 -4.726562 0.816406 -5.425781 1.109375 -6.03125 C 1.398438 -6.632812 1.828125 -7.109375 2.390625 -7.453125 C 2.953125 -7.796875 3.632812 -7.96875 4.4375 -7.96875 C 5.269531 -7.96875 5.992188 -7.8125 6.609375 -7.5 L 6.21875 -6.671875 C 5.976562 -6.773438 5.707031 -6.867188 5.40625 -6.953125 C 5.113281 -7.046875 4.789062 -7.09375 4.4375 -7.09375 Z M 4.4375 -7.09375 "/></g></g></g><g fill="#8d2c4a" fill-opacity="1"><g transform="translate(12.321289, 11.899968)"><g><path d="M 7.046875 -7.859375 L 7.046875 -2.765625 C 7.046875 -2.222656 6.929688 -1.734375 6.703125 -1.296875 C 6.484375 -0.867188 6.144531 -0.523438 5.6875 -0.265625 C 5.238281 -0.015625 4.671875 0.109375 3.984375 0.109375 C 3.003906 0.109375 2.257812 -0.15625 1.75 -0.6875 C 1.238281 -1.21875 0.984375 -1.921875 0.984375 -2.796875 L 0.984375 -7.859375 L 1.984375 -7.859375 L 1.984375 -2.765625 C 1.984375 -2.117188 2.148438 -1.617188 2.484375 -1.265625 C 2.828125 -0.921875 3.34375 -0.75 4.03125 -0.75 C 4.75 -0.75 5.265625 -0.9375 5.578125 -1.3125 C 5.898438 -1.6875 6.0625 -2.171875 6.0625 -2.765625 L 6.0625 -7.859375 Z M 7.046875 -7.859375 "/></g></g></g><g fill="#8d2c4a" fill-opacity="1"><g transform="translate(20.356608, 11.899968)"><g><path d="M 3.234375 -7.859375 C 4.210938 -7.859375 4.929688 -7.671875 5.390625 -7.296875 C 5.859375 -6.929688 6.09375 -6.375 6.09375 -5.625 C 6.09375 -5.207031 6.015625 -4.859375 5.859375 -4.578125 C 5.703125 -4.296875 5.503906 -4.070312 5.265625 -3.90625 C 5.035156 -3.738281 4.785156 -3.609375 4.515625 -3.515625 L 6.671875 0 L 5.515625 0 L 3.625 -3.25 L 2.0625 -3.25 L 2.0625 0 L 1.0625 0 L 1.0625 -7.859375 Z M 3.171875 -7 L 2.0625 -7 L 2.0625 -4.078125 L 3.234375 -4.078125 C 3.867188 -4.078125 4.332031 -4.203125 4.625 -4.453125 C 4.925781 -4.710938 5.078125 -5.085938 5.078125 -5.578125 C 5.078125 -6.085938 4.921875 -6.453125 4.609375 -6.671875 C 4.296875 -6.890625 3.816406 -7 3.171875 -7 Z M 3.171875 -7 "/></g></g></g><g fill="#8d2c4a" fill-opacity="1"><g transform="translate(27.193778, 11.899968)"><g><path d="M 1.0625 0 L 1.0625 -7.859375 L 2.0625 -7.859375 L 2.0625 -0.875 L 5.484375 -0.875 L 5.484375 0 Z M 1.0625 0 "/></g></g></g><g fill="#8d2c4a" fill-opacity="1"><g transform="translate(32.953703, 11.899968)"><g><path d="M 3.109375 -4 L 5.15625 -7.859375 L 6.21875 -7.859375 L 3.609375 -3.046875 L 3.609375 0 L 2.625 0 L 2.625 -3 L 0 -7.859375 L 1.078125 -7.859375 Z M 3.109375 -4 "/></g></g></g><g fill="#8d2c4a" fill-opacity="1"><g transform="translate(39.175306, 11.899968)"><g/></g></g><g fill="#000000" fill-opacity="1"><g transform="translate(41.444509, 11.899968)"><g><path d="M 4.484375 -4.140625 L 7.1875 -4.140625 L 7.1875 -0.296875 C 6.769531 -0.160156 6.34375 -0.0625 5.90625 0 C 5.476562 0.0703125 4.988281 0.109375 4.4375 0.109375 C 3.625 0.109375 2.9375 -0.0507812 2.375 -0.375 C 1.820312 -0.707031 1.398438 -1.175781 1.109375 -1.78125 C 0.816406 -2.382812 0.671875 -3.097656 0.671875 -3.921875 C 0.671875 -4.734375 0.828125 -5.441406 1.140625 -6.046875 C 1.460938 -6.660156 1.925781 -7.132812 2.53125 -7.46875 C 3.144531 -7.800781 3.878906 -7.96875 4.734375 -7.96875 C 5.179688 -7.96875 5.597656 -7.925781 5.984375 -7.84375 C 6.378906 -7.757812 6.742188 -7.644531 7.078125 -7.5 L 6.703125 -6.640625 C 6.429688 -6.753906 6.117188 -6.859375 5.765625 -6.953125 C 5.421875 -7.046875 5.0625 -7.09375 4.6875 -7.09375 C 3.75 -7.09375 3.015625 -6.804688 2.484375 -6.234375 C 1.960938 -5.671875 1.703125 -4.898438 1.703125 -3.921875 C 1.703125 -3.296875 1.800781 -2.742188 2 -2.265625 C 2.207031 -1.785156 2.523438 -1.410156 2.953125 -1.140625 C 3.390625 -0.878906 3.957031 -0.75 4.65625 -0.75 C 5.007812 -0.75 5.304688 -0.765625 5.546875 -0.796875 C 5.785156 -0.835938 6.003906 -0.882812 6.203125 -0.9375 L 6.203125 -3.265625 L 4.484375 -3.265625 Z M 4.484375 -4.140625 "/></g></g></g><g fill="#000000" fill-opacity="1"><g transform="translate(49.446847, 11.899968)"><g><path d="M 3.28125 0 L 0.4375 0 L 0.4375 -0.578125 L 1.359375 -0.78125 L 1.359375 -7.0625 L 0.4375 -7.28125 L 0.4375 -7.859375 L 3.28125 -7.859375 L 3.28125 -7.28125 L 2.359375 -7.0625 L 2.359375 -0.78125 L 3.28125 -0.578125 Z M 3.28125 0 "/></g></g></g><g fill="#000000" fill-opacity="1"><g transform="translate(53.173215, 11.899968)"><g><path d="M 3.234375 -7.859375 C 4.210938 -7.859375 4.929688 -7.671875 5.390625 -7.296875 C 5.859375 -6.929688 6.09375 -6.375 6.09375 -5.625 C 6.09375 -5.207031 6.015625 -4.859375 5.859375 -4.578125 C 5.703125 -4.296875 5.503906 -4.070312 5.265625 -3.90625 C 5.035156 -3.738281 4.785156 -3.609375 4.515625 -3.515625 L 6.671875 0 L 5.515625 0 L 3.625 -3.25 L 2.0625 -3.25 L 2.0625 0 L 1.0625 0 L 1.0625 -7.859375 Z M 3.171875 -7 L 2.0625 -7 L 2.0625 -4.078125 L 3.234375 -4.078125 C 3.867188 -4.078125 4.332031 -4.203125 4.625 -4.453125 C 4.925781 -4.710938 5.078125 -5.085938 5.078125 -5.578125 C 5.078125 -6.085938 4.921875 -6.453125 4.609375 -6.671875 C 4.296875 -6.890625 3.816406 -7 3.171875 -7 Z M 3.171875 -7 "/></g></g></g><g fill="#000000" fill-opacity="1"><g transform="translate(60.010384, 11.899968)"><g><path d="M 1.0625 0 L 1.0625 -7.859375 L 2.0625 -7.859375 L 2.0625 -0.875 L 5.484375 -0.875 L 5.484375 0 Z M 1.0625 0 "/></g></g></g><g fill="#8d2c4a" fill-opacity="1"><g transform="translate(65.772633, 11.899968)"><g/></g></g><g fill="#8d2c4a" fill-opacity="1"><g transform="translate(68.037029, 11.899968)"><g><path d="M 1.0625 0 L 1.0625 -7.859375 L 2.0625 -7.859375 L 2.0625 -0.875 L 5.484375 -0.875 L 5.484375 0 Z M 1.0625 0 "/></g></g></g><g fill="#8d2c4a" fill-opacity="1"><g transform="translate(73.796955, 11.899968)"><g><path d="M 6 0 L 5.046875 -2.4375 L 1.9375 -2.4375 L 1 0 L 0 0 L 3.0625 -7.890625 L 3.953125 -7.890625 L 7.015625 0 Z M 4.75 -3.3125 L 3.875 -5.6875 C 3.851562 -5.75 3.816406 -5.851562 3.765625 -6 C 3.710938 -6.15625 3.660156 -6.316406 3.609375 -6.484375 C 3.566406 -6.648438 3.53125 -6.773438 3.5 -6.859375 C 3.4375 -6.628906 3.375 -6.40625 3.3125 -6.1875 C 3.25 -5.976562 3.195312 -5.8125 3.15625 -5.6875 L 2.265625 -3.3125 Z M 4.75 -3.3125 "/></g></g></g><g fill="#8d2c4a" fill-opacity="1"><g transform="translate(80.820983, 11.899968)"><g><path d="M 1.0625 0 L 1.0625 -7.859375 L 2.0625 -7.859375 L 2.0625 -0.875 L 5.484375 -0.875 L 5.484375 0 Z M 1.0625 0 "/></g></g></g><g fill="#8d2c4a" fill-opacity="1"><g transform="translate(86.580908, 11.899968)"><g><path d="M 6 0 L 5.046875 -2.4375 L 1.9375 -2.4375 L 1 0 L 0 0 L 3.0625 -7.890625 L 3.953125 -7.890625 L 7.015625 0 Z M 4.75 -3.3125 L 3.875 -5.6875 C 3.851562 -5.75 3.816406 -5.851562 3.765625 -6 C 3.710938 -6.15625 3.660156 -6.316406 3.609375 -6.484375 C 3.566406 -6.648438 3.53125 -6.773438 3.5 -6.859375 C 3.4375 -6.628906 3.375 -6.40625 3.3125 -6.1875 C 3.25 -5.976562 3.195312 -5.8125 3.15625 -5.6875 L 2.265625 -3.3125 Z M 4.75 -3.3125 "/></g></g></g></g></g></g><g fill="#000000" fill-opacity="1"><g transform="translate(181.957932, 324.24997)"><g><path d="M 4.265625 -3.75 C 4.671875 -3.59375 4.992188 -3.363281 5.234375 -3.0625 C 5.472656 -2.769531 5.59375 -2.425781 5.59375 -2.03125 C 5.59375 -1.570312 5.484375 -1.191406 5.265625 -0.890625 C 5.046875 -0.585938 4.753906 -0.363281 4.390625 -0.21875 C 4.023438 -0.0703125 3.625 0 3.1875 0 L 1.046875 0 L 1.046875 -7.234375 L 2.90625 -7.234375 C 3.644531 -7.234375 4.21875 -7.078125 4.625 -6.765625 C 5.03125 -6.460938 5.234375 -6.007812 5.234375 -5.40625 C 5.234375 -5.03125 5.148438 -4.695312 4.984375 -4.40625 C 4.816406 -4.125 4.578125 -3.90625 4.265625 -3.75 Z M 2.015625 -4.0625 L 3.109375 -4.0625 C 3.484375 -4.0625 3.765625 -4.164062 3.953125 -4.375 C 4.140625 -4.59375 4.234375 -4.867188 4.234375 -5.203125 C 4.234375 -5.578125 4.117188 -5.851562 3.890625 -6.03125 C 3.671875 -6.207031 3.359375 -6.296875 2.953125 -6.296875 L 2.015625 -6.296875 Z M 3.15625 -0.90625 C 3.570312 -0.90625 3.914062 -1 4.1875 -1.1875 C 4.457031 -1.375 4.59375 -1.648438 4.59375 -2.015625 C 4.59375 -2.398438 4.441406 -2.679688 4.140625 -2.859375 C 3.847656 -3.035156 3.492188 -3.125 3.078125 -3.125 L 2.015625 -3.125 L 2.015625 -0.90625 Z M 3.15625 -0.90625 "/></g></g></g><g fill="#000000" fill-opacity="1"><g transform="translate(188.145489, 324.24997)"><g><path d="M 6.640625 -7.234375 L 3.9375 -2.40625 L 3.9375 0 L 2.953125 0 L 2.953125 -2.40625 L 0.28125 -7.234375 L 1.484375 -7.234375 L 3.46875 -3.515625 L 5.453125 -7.234375 Z M 6.640625 -7.234375 "/></g></g></g></svg>